PathFileType	4	(X/Y/Z)	../Python\walking\Walking17\task.trc
DataRate	CameraRate	NumFrames	NumMarkers	Units	OrigDataRate	OrigDataStartFrame	OrigNumFrames
200.000000	200.000000	6	30	mm	200.000000	87	350
Frame#	Time	CLAV			STRN			RASI			LASI			PE01			RTH1			RTH2			RTH3			RTB3			RHEE			RD5M			RTOE			LTH2			LTH3			LTB2			LTB3			LHEE			LTOE			LD5M			RBAK			RTB2			C7			RTB1			LPSI			PE03			PE02			RPSI			T10			LTH1			LTB1			
		X1	Y1	Z1	X2	Y2	Z2	X3	Y3	Z3	X4	Y4	Z4	X5	Y5	Z5	X6	Y6	Z6	X7	Y7	Z7	X8	Y8	Z8	X9	Y9	Z9	X10	Y10	Z10	X11	Y11	Z11	X12	Y12	Z12	X13	Y13	Z13	X14	Y14	Z14	X15	Y15	Z15	X16	Y16	Z16	X17	Y17	Z17	X18	Y18	Z18	X19	Y19	Z19	X20	Y20	Z20	X21	Y21	Z21	X22	Y22	Z22	X23	Y23	Z23	X24	Y24	Z24	X25	Y25	Z25	X26	Y26	Z26	X27	Y27	Z27	X28	Y28	Z28	X29	Y29	Z29	X30	Y30	Z30	

88	0.435	-806.8502807617192	1260.817504882813	153.4540100097657	-749.8123779296877	1075.214965820313	153.1264343261719	-776.0957031250005	878.987426757813	298.7746582031251	-794.9445800781255	870.3425903320317	73.22856903076175	-975.1473999023442	962.8869018554692	212.0404357910157	-844.895874023438	585.3925781250002	324.3258666992189	-832.9482421875005	509.5475769042971	302.268035888672	-802.353637695313	563.564880371094	306.9138793945314	-864.8478393554692	209.2703552246095	267.715057373047	-978.6498413085942	28.17679977416994	209.4710388183595	-825.3515014648442	16.36736488342286	266.8269348144532	-790.7687988281255	29.36879730224611	210.5892486572267	-779.435180664063	557.834411621094	56.4445495605469	-728.908142089844	614.4774169921877	38.02574920654298	-830.8665161132817	252.1322784423829	74.88288116455081	-783.2747192382817	266.2017822265626	71.39234924316409	-913.3143920898442	88.87649536132815	144.8314056396485	-735.9479980468752	44.77022171020509	107.5654983520508	-780.3669433593755	39.27732467651369	71.58258819580081	-959.2995605468755	1263.908813476563	284.081512451172	-888.4669799804692	248.245819091797	289.0653686523439	-923.775756835938	1357.902221679688	169.7002868652344	-842.6997070312505	285.2339477539064	274.3567810058595	-984.1607055664067	924.5462036132817	172.2984619140626	-994.3144531250005	902.780639648438	189.095932006836	-989.8361206054692	904.1582641601567	239.6669158935548	-973.3498535156255	930.4938354492192	261.1671142578126	-955.3204956054692	1061.210693359375	199.5094757080079	-778.523803710938	617.0564575195315	39.23024749755861	-801.0756835937505	324.6917419433595	59.97130966186526	
89	0.44	-800.3820190429692	1260.447509765625	153.0971679687501	-743.498474121094	1074.87548828125	152.9228057861329	-769.5883178710942	878.774780273438	298.8911132812501	-787.7625122070317	870.514282226563	73.44334411621097	-968.649536132813	962.3510742187505	211.5869750976564	-840.9862670898442	585.2097167968752	324.0884704589845	-829.8944702148442	509.2938232421877	301.9675292968751	-798.7839965820317	562.9622192382815	306.3543701171876	-864.1670532226567	209.1366729736329	267.598114013672	-978.626586914063	28.27780151367189	209.3876800537111	-825.3513793945317	16.39813423156739	266.7721252441407	-790.768920898438	29.32702445983888	210.5368499755861	-770.7006835937505	558.3535766601565	57.08416366577151	-720.508728027344	615.3287353515627	38.74669647216798	-813.9318847656255	248.4960784912111	74.4440841674805	-766.8675537109377	264.3201904296876	71.1499938964844	-890.4967651367192	82.35579681396487	143.7282409667969	-711.3843383789065	44.38450241088869	107.1519927978516	-755.556579589844	37.35617065429689	70.94809722900393	-952.5046997070317	1263.759399414063	284.1755676269532	-887.6120605468755	248.2448730468751	288.965789794922	-917.1710815429692	1357.584228515625	169.4895629882813	-841.7053222656255	285.0082092285157	274.2280273437501	-977.4509887695317	923.9741821289067	171.7955780029297	-987.593383789063	902.2113647460942	188.5242156982422	-983.270874023438	903.548706054688	239.1090545654298	-966.8850708007817	929.9424438476567	260.7214355468751	-948.8690795898442	1060.860107421875	199.4450683593751	-770.1633300781255	617.4849243164065	39.84140014648439	-786.7737426757817	322.136199951172	59.75212097167972	
90	0.445	-793.915161132813	1259.979858398438	152.7565917968751	-737.1751098632815	1074.441284179688	152.7445373535157	-763.0747070312502	878.4934082031255	299.0077514648439	-780.529174804688	870.5764770507817	73.63960266113284	-962.1484375000005	961.6893920898442	211.0635681152345	-837.0379028320317	584.992370605469	323.8829040527345	-826.7888183593755	509.033630371094	301.6661071777345	-795.1863403320317	562.347351074219	305.7865600585939	-863.4962768554692	209.0098724365236	267.5137634277345	-978.6052856445317	28.39138412475587	209.3079071044923	-825.3547363281255	16.42691612243653	266.7271118164064	-790.762573242188	29.28055381774904	210.4826202392579	-762.1872558593752	558.6949462890627	57.69830703735354	-712.239440917969	615.9613037109377	39.46823501586915	-797.0495605468755	244.9329071044923	74.04425048828128	-750.5811157226565	262.4945373535157	70.90949249267581	-867.5541381835942	76.11332702636722	142.6573181152344	-686.947448730469	44.22851181030275	106.7208557128907	-730.8243408203127	35.69725799560548	70.31294250488284	-945.7360229492192	1263.504028320313	284.2496337890626	-886.7773437500005	248.2517089843751	288.8936157226564	-910.578735351563	1357.167846679688	169.2720184326172	-840.7156372070317	284.7854003906251	274.1377563476564	-970.7188110351567	923.262817382813	171.2423095703126	-980.854370117188	901.5001831054692	187.9069366455079	-976.698120117188	902.820434570313	238.5042266845704	-960.4270019531255	929.2736816406255	260.2171936035157	-942.428588867188	1060.401245117188	199.3361358642579	-761.948669433594	617.7336425781252	40.4440040588379	-772.5952148437505	319.5622558593751	59.56866836547854	
91	0.45	-787.447875976563	1259.4150390625	152.4309082031251	-730.8402099609377	1073.91162109375	152.5906524658204	-756.5557861328127	878.141967773438	299.1247558593751	-773.2479858398442	870.5277709960942	73.81431579589847	-955.6403808593755	960.9044799804692	210.4724731445314	-833.055786132813	584.741638183594	323.711883544922	-823.6426391601567	508.7644653320315	301.3706054687501	-791.5659179687505	561.7183837890627	305.2210083007814	-862.834838867188	208.8898773193361	267.4652404785157	-978.5869750976567	28.5187168121338	209.2317352294923	-825.3625488281255	16.45438957214356	266.6924743652345	-790.749389648438	29.23115158081056	210.4277496337892	-753.8801879882815	558.8509521484377	58.27288818359378	-704.0918579101565	616.368591308594	40.1751174926758	-780.241577148438	241.4626617431642	73.68509674072268	-734.434753417969	260.7384338378907	70.6708908081055	-844.5319824218755	70.18567657470706	141.6230773925782	-662.6848144531252	44.31596755981447	106.2712402343751	-706.2191162109377	34.32004928588869	69.67683410644534	-938.9916992187505	1263.143920898438	284.3033752441407	-885.9622192382817	248.2662353515626	288.8504638671876	-903.9972534179692	1356.654418945313	169.0468292236329	-839.7280883789067	284.5653076171876	274.0894165039064	-963.963500976563	922.414672851563	170.6425476074219	-974.0973510742192	900.6506347656255	187.2466735839844	-970.1177368164067	901.9768676757817	237.8549194335939	-953.9745483398442	928.489868164063	259.656219482422	-935.997192382813	1059.8359375	199.1834411621095	-753.8684082031252	617.7994384765627	41.02297210693361	-758.5507812500002	316.9826965332032	59.42281723022464	
92	0.455	-780.9783325195317	1258.754150390625	152.1186218261719	-724.4914550781252	1073.286865234375	152.4601287841797	-750.0323486328127	877.7194213867192	299.2424621582032	-765.9226684570315	870.3674926757817	73.96519470214847	-949.1213378906255	959.9995727539067	209.8164367675782	-829.0462036132817	584.4582519531252	323.5773925781251	-820.4675903320317	508.4832458496096	301.0887145996095	-787.928100585938	561.0729980468752	304.6700439453126	-862.180053710938	208.7760620117189	267.4542541503907	-978.5724487304692	28.66138458251955	209.1591186523439	-825.3759765625005	16.48112678527833	266.6685180664064	-790.7296752929692	29.18032264709474	210.3739624023439	-745.7630004882815	558.8162231445315	58.79522323608401	-696.057067871094	616.5454101562502	40.84930801391603	-763.5298461914065	238.1031646728517	73.36716461181643	-718.4470825195315	259.0637207031251	70.43425750732425	-821.477661132813	64.6054382324219	140.6289978027344	-638.6423950195315	44.66043853759767	105.8024902343751	-681.7886352539065	33.24225234985353	69.03928375244143	-932.269897460938	1262.6806640625	284.3364868164064	-885.1631469726567	248.2879028320314	288.8369140625001	-897.4252319335942	1356.04541015625	168.8131866455079	-838.7379760742192	284.3472595214845	274.0848083496095	-957.1846313476567	921.4335937500005	170.0004425048829	-967.3220825195317	899.667358398438	186.5460510253907	-963.5297851562505	901.022338867188	237.1636505126954	-947.5263671875005	927.5944824218755	259.0406494140626	-929.5727539062505	1059.166259765625	198.9881134033204	-745.9110107421877	617.6804199218752	41.56244277954103	-744.650085449219	314.4092407226564	59.31540298461917	
93	0.46	-774.5045776367192	1257.998413085938	151.8181762695313	-718.1265258789065	1072.567504882813	152.3517761230469	-743.5052490234377	877.224975585938	299.3611755371095	-758.5568847656252	870.095581054688	74.09069824218753	-942.587280273438	958.9792480468755	209.0987396240236	-825.015747070313	584.1429443359377	323.4804992675782	-817.2739257812505	508.1865539550784	300.8281555175782	-784.277709960938	560.408630371094	304.1471252441407	-861.5270996093755	208.6672668457032	267.4810180664064	-978.5624389648442	28.82145309448244	209.0900421142579	-825.395629882813	16.50750732421876	266.654998779297	-790.7039184570317	29.12921142578126	210.3231658935548	-737.817810058594	558.5874023437502	59.25479125976565	-688.1257934570315	616.4883422851565	41.47086715698244	-746.935974121094	234.8703155517579	73.08985137939456	-702.6360473632815	257.4806213378907	70.1996765136719	-798.4392700195317	59.40058517456058	139.6776275634766	-614.8635864257815	45.27515792846681	105.3138885498047	-657.578796386719	32.4794273376465	68.39969635009768	-925.5686035156255	1262.1162109375	284.3486633300782	-884.3733520507817	248.3156890869142	288.8524169921876	-890.8611450195317	1355.343017578125	168.5702819824219	-837.7385253906255	284.1300354003907	274.1241149902345	-950.3816528320317	920.3242187500005	169.3203125000001	-960.5283203125005	898.556274414063	185.8077545166016	-956.9340209960942	899.9622192382817	236.4330291748048	-941.080932617188	926.5917968750005	258.3730773925782	-923.1527709960942	1058.394653320313	198.7516326904298	-738.064880371094	617.3763427734377	42.0465431213379	-730.9013671875002	311.8530578613282	59.2463302612305	
